<svg version="1.1" xmlns="http://www.w3.org/2000/svg" xmlns:xlink="http://www.w3.org/1999/xlink" width="63px" height="63px" viewBox="0,0,256,256"><g fill="none" fill-rule="nonzero" stroke="none" stroke-width="none" stroke-linecap="none" stroke-linejoin="none" stroke-miterlimit="10" stroke-dasharray="" stroke-dashoffset="0" font-family="none" font-weight="none" font-size="none" text-anchor="none" style="mix-blend-mode: normal"><g transform="translate(0,-0.00786) scale(4.06349,4.06349)"><g><path d="M19.5,51.3v0c-0.7,-0.5 -0.9,-1.4 -0.5,-2.1l3,-4.7c0.5,-0.7 1.4,-0.9 2.1,-0.5c0.7,0.5 0.9,1.4 0.5,2.1l-3,4.7c-0.4,0.7 -1.4,0.9 -2.1,0.5" fill="#f8c750" stroke="none" stroke-width="1" stroke-linecap="butt" stroke-linejoin="miter"></path><path d="M19.5,51.3v0c-0.7,-0.5 -0.9,-1.4 -0.5,-2.1l3,-4.7c0.5,-0.7 1.4,-0.9 2.1,-0.5c0.7,0.5 0.9,1.4 0.5,2.1l-3,4.7c-0.4,0.7 -1.4,0.9 -2.1,0.5z" fill="none" stroke="#2a120b" stroke-width="1.6" stroke-linecap="round" stroke-linejoin="round"></path><path d="M43.5,51.3v0c0.7,-0.5 0.9,-1.4 0.5,-2.1l-3,-4.7c-0.5,-0.7 -1.4,-0.9 -2.1,-0.5c-0.7,0.4 -0.9,1.4 -0.5,2.1l3,4.7c0.4,0.7 1.4,0.9 2.1,0.5" fill="#f8c750" stroke="none" stroke-width="1" stroke-linecap="butt" stroke-linejoin="miter"></path><path d="M43.5,51.3v0c0.7,-0.5 0.9,-1.4 0.5,-2.1l-3,-4.7c-0.5,-0.7 -1.4,-0.9 -2.1,-0.5c-0.7,0.4 -0.9,1.4 -0.5,2.1l3,4.7c0.4,0.7 1.4,0.9 2.1,0.5z" fill="none" stroke="#2a120b" stroke-width="1.6" stroke-linecap="round" stroke-linejoin="round"></path><path d="M46.7,32.3c0,8.4 -6.8,15.2 -15.2,15.2c-8.4,0 -15.2,-6.8 -15.2,-15.2c0,-8.4 6.8,-15.2 15.2,-15.2c8.4,0 15.2,6.8 15.2,15.2" fill="#fe9e9f" stroke="none" stroke-width="1" stroke-linecap="butt" stroke-linejoin="miter"></path><circle cx="31.5" cy="32.3" r="15.2" fill="none" stroke="#2a120b" stroke-width="1.6" stroke-linecap="round" stroke-linejoin="round"></circle><path d="M31.5,43.7c-6.3,0 -11.4,-5.1 -11.4,-11.4c0,-6.3 5.1,-11.4 11.4,-11.4c6.3,0 11.4,5.1 11.4,11.4c0,6.3 -5.1,11.4 -11.4,11.4" fill="#ffffff" stroke="none" stroke-width="1" stroke-linecap="butt" stroke-linejoin="miter"></path><path d="M31.5,43.7c-6.3,0 -11.4,-5.1 -11.4,-11.4c0,-6.3 5.1,-11.4 11.4,-11.4c6.3,0 11.4,5.1 11.4,11.4c0,6.3 -5.1,11.4 -11.4,11.4z" fill="none" stroke="#2a120b" stroke-width="1.6" stroke-linecap="round" stroke-linejoin="round"></path><path d="M23.5,15.6c-1.2,-2.4 -3.7,-4.1 -6.6,-4.1c-4.1,0 -7.4,3.3 -7.4,7.4c0,3.1 2,5.8 4.7,6.9c1.7,-4.5 5,-8.1 9.3,-10.2" fill="#fe9e9f" stroke="none" stroke-width="1" stroke-linecap="butt" stroke-linejoin="miter"></path><path d="M23.5,15.6c-1.2,-2.4 -3.7,-4.1 -6.6,-4.1c-4.1,0 -7.4,3.3 -7.4,7.4c0,3.1 2,5.8 4.7,6.9c1.7,-4.5 5,-8.1 9.3,-10.2z" fill="none" stroke="#2a120b" stroke-width="1.6" stroke-linecap="round" stroke-linejoin="round"></path><path d="M53.5,18.9c0,-4.1 -3.3,-7.4 -7.4,-7.4c-2.9,0 -5.4,1.7 -6.6,4.1c4.3,2.1 7.7,5.7 9.3,10.2c2.8,-1.1 4.7,-3.7 4.7,-6.9" fill="#fe9e9f" stroke="none" stroke-width="1" stroke-linecap="butt" stroke-linejoin="miter"></path><path d="M53.5,18.9c0,-4.1 -3.3,-7.4 -7.4,-7.4c-2.9,0 -5.4,1.7 -6.6,4.1c4.3,2.1 7.7,5.7 9.3,10.2c2.8,-1.1 4.7,-3.7 4.7,-6.9z" fill="none" stroke="#2a120b" stroke-width="1.6" stroke-linecap="round" stroke-linejoin="round"></path><path d="M25.3,28l6.2,4.3l7.1,-6.1" fill="#ffffff" stroke="none" stroke-width="1" stroke-linecap="butt" stroke-linejoin="miter"></path><path d="M25.3,28l6.2,4.3l7.1,-6.1" fill="none" stroke="#2a120b" stroke-width="1.6" stroke-linecap="butt" stroke-linejoin="round"></path></g></g></g></svg>