<svg version="1.1" xmlns="http://www.w3.org/2000/svg" xmlns:xlink="http://www.w3.org/1999/xlink" width="63px" height="63px" viewBox="0,0,256,256"><g fill="none" fill-rule="nonzero" stroke="none" stroke-width="none" stroke-linecap="none" stroke-linejoin="none" stroke-miterlimit="10" stroke-dasharray="" stroke-dashoffset="0" font-family="none" font-weight="none" font-size="none" text-anchor="none" style="mix-blend-mode: normal"><g transform="scale(4.06349,4.06349)"><g><path d="M43.6,13.7h-26.4c-3.6,0 -6.5,2.9 -6.5,6.5v11.9c0,3.6 2.9,6.5 6.5,6.5v10.7l7.4,-10.7h19c3.6,0 6.5,-2.9 6.5,-6.5v-11.9c0.1,-3.6 -2.9,-6.5 -6.5,-6.5" fill="#ffffff" stroke="none" stroke-width="1" stroke-linecap="butt" stroke-linejoin="miter"></path><path d="M43.6,13.7h-26.4c-3.6,0 -6.5,2.9 -6.5,6.5v11.9c0,3.6 2.9,6.5 6.5,6.5v10.7l7.4,-10.7h19c3.6,0 6.5,-2.9 6.5,-6.5v-11.9c0.1,-3.6 -2.9,-6.5 -6.5,-6.5z" fill="none" stroke="#2a120b" stroke-width="1.6" stroke-linecap="round" stroke-linejoin="round"></path><path d="M3.1,41.7h5.5" fill="none" stroke="#f8c750" stroke-width="2" stroke-linecap="round" stroke-linejoin="round"></path><path d="M5.8,44.5v-5.6" fill="none" stroke="#f8c750" stroke-width="2" stroke-linecap="round" stroke-linejoin="round"></path><path d="M54.4,23.6h5.5" fill="none" stroke="#f8c750" stroke-width="2" stroke-linecap="round" stroke-linejoin="round"></path><path d="M57.2,26.3v-5.5" fill="none" stroke="#f8c750" stroke-width="2" stroke-linecap="round" stroke-linejoin="round"></path><g fill="#2a120b" stroke="none" stroke-width="1" stroke-linecap="butt" stroke-linejoin="miter"><path d="M24.8,30.7h-1.2l-4.1,-6.2v6.2h-1.3v-8.9h1.2l4.1,6.2v-6.2h1.3v8.9z"></path><path d="M32.8,30.7h-5.7v-8.9h5.7v1.2h-4.3v2.6h3.7v1.2h-3.7v2.7h4.3v1.2z"></path><path d="M44.2,21.8l-2.3,8.9h-1.2l-1.8,-6.2l-1.8,6.2h-1.2l-2.3,-8.9h1.4l1.5,6.4l1.8,-6.4h1.1l1.8,6.4l1.5,-6.4z"></path></g></g></g></g></svg>